<svg xmlns="http://www.w3.org/2000/svg" width="800" height="450" viewBox="0 0 800 450">
  <defs>
    <linearGradient id="bgGrad3" x1="0%" y1="0%" x2="100%" y2="100%">
      <stop offset="0%" style="stop-color:#0f0f23"/>
      <stop offset="100%" style="stop-color:#1a1a3e"/>
    </linearGradient>
  </defs>
  
  <rect width="800" height="450" fill="url(#bgGrad3)"/>
  
  <!-- Sidebar -->
  <rect x="0" y="0" width="60" height="450" fill="#161632"/>
  
  <!-- Navigation icons -->
  <rect x="15" y="60" width="30" height="30" fill="#6c5ce7" rx="6"/>
  <text x="30" y="82" fill="#ffffff" font-family="Arial" font-size="16" text-anchor="middle">☰</text>
  
  <rect x="15" y="110" width="30" height="30" fill="#2a2a4a" rx="6"/>
  <text x="30" y="132" fill="#888" font-family="Arial" font-size="14" text-anchor="middle">📊</text>
  
  <rect x="15" y="160" width="30" height="30" fill="#2a2a4a" rx="6"/>
  <text x="30" y="182" fill="#888" font-family="Arial" font-size="14" text-anchor="middle">👥</text>
  
  <rect x="15" y="210" width="30" height="30" fill="#2a2a4a" rx="6"/>
  <text x="30" y="232" fill="#888" font-family="Arial" font-size="14" text-anchor="middle">📋</text>
  
  <rect x="15" y="260" width="30" height="30" fill="#2a2a4a" rx="6"/>
  <text x="30" y="282" fill="#888" font-family="Arial" font-size="14" text-anchor="middle">⚙️</text>
  
  <!-- Header -->
  <rect x="60" y="0" width="740" height="50" fill="#1a1a3e"/>
  <text x="80" y="32" fill="#ffffff" font-family="Arial" font-size="14" font-weight="bold">CRM Dashboard</text>
  
  <!-- Main content -->
  <rect x="80" y="70" width="640" height="360" fill="#161632" rx="8"/>
  
  <!-- Lead Status Cards -->
  <rect x="100" y="90" width="140" height="80" fill="#2a2a4a" rx="6"/>
  <text x="110" y="110" fill="#888" font-family="Arial" font-size="10">New Leads</text>
  <text x="110" y="135" fill="#00ff88" font-family="Arial" font-size="24" font-weight="bold">156</text>
  
  <rect x="260" y="90" width="140" height="80" fill="#2a2a4a" rx="6"/>
  <text x="270" y="110" fill="#888" font-family="Arial" font-size="10">In Progress</text>
  <text x="270" y="135" fill="#00aaff" font-family="Arial" font-size="24" font-weight="bold">89</text>
  
  <rect x="420" y="90" width="140" height="80" fill="#2a2a4a" rx="6"/>
  <text x="430" y="110" fill="#888" font-family="Arial" font-size="10">Converted</text>
  <text x="430" y="135" fill="#ffaa00" font-family="Arial" font-size="24" font-weight="bold">47</text>
  
  <rect x="580" y="90" width="140" height="80" fill="#2a2a4a" rx="6"/>
  <text x="590" y="110" fill="#888" font-family="Arial" font-size="10">Lost</text>
  <text x="590" y="135" fill="#ff4466" font-family="Arial" font-size="24" font-weight="bold">23</text>
  
  <!-- Workflow section -->
  <text x="100" y="195" fill="#ffffff" font-family="Arial" font-size="12" font-weight="bold">Lead Flow</text>
  
  <!-- Flow stages -->
  <rect x="100" y="210" width="140" height="120" fill="#2a2a4a" rx="6"/>
  <text x="170" y="235" fill="#00ff88" font-family="Arial" font-size="11" text-anchor="middle">📥</text>
  <text x="170" y="255" fill="#ffffff" font-family="Arial" font-size="10" text-anchor="middle">Import</text>
  <text x="170" y="275" fill="#00ff88" font-family="Arial" font-size="16" font-weight="bold">128</text>
  
  <text x="255" y="270" fill="#ffffff" font-family="Arial" font-size="16">→</text>
  
  <rect x="280" y="210" width="140" height="120" fill="#2a2a4a" rx="6"/>
  <text x="350" y="235" fill="#00aaff" font-family="Arial" font-size="11" text-anchor="middle">🏷️</text>
  <text x="350" y="255" fill="#ffffff" font-family="Arial" font-size="10" text-anchor="middle">Tagging</text>
  <text x="350" y="275" fill="#00aaff" font-family="Arial" font-size="16" font-weight="bold">95</text>
  
  <text x="435" y="270" fill="#ffffff" font-family="Arial" font-size="16">→</text>
  
  <rect x="460" y="210" width="140" height="120" fill="#2a2a4a" rx="6"/>
  <text x="530" y="235" fill="#ffaa00" font-family="Arial" font-size="11" text-anchor="middle">📤</text>
  <text x="530" y="255" fill="#ffffff" font-family="Arial" font-size="10" text-anchor="middle">Assign</text>
  <text x="530" y="275" fill="#ffaa00" font-family="Arial" font-size="16" font-weight="bold">67</text>
  
  <text x="615" y="270" fill="#ffffff" font-family="Arial" font-size="16">→</text>
  
  <rect x="640" y="210" width="140" height="120" fill="#2a2a4a" rx="6"/>
  <text x="710" y="235" fill="#ff4466" font-family="Arial" font-size="11" text-anchor="middle">✅</text>
  <text x="710" y="255" fill="#ffffff" font-family="Arial" font-size="10" text-anchor="middle">Close</text>
  <text x="710" y="275" fill="#ff4466" font-family="Arial" font-size="16" font-weight="bold">47</text>
  
  <!-- Recent Activities -->
  <rect x="100" y="350" width="500" height="60" fill="#2a2a4a" rx="6"/>
  <text x="115" y="370" fill="#888" font-family="Arial" font-size="10">Recent Activities</text>
  
  <text x="115" y="390" fill="#ffffff" font-family="Arial" font-size="9">Lead #4582 assigned to John | 2 min ago</text>
  
  <!-- Decorative elements -->
  <rect x="700" y="350" width="60" height="60" fill="#2a2a4a" rx="6"/>
  <text x="730" y="385" fill="#6c5ce7" font-family="Arial" font-size="24" text-anchor="middle">+</text>
  
  <!-- Neon border -->
  <line x1="75" y1="65" x2="725" y2="65" stroke="#6c5ce7" stroke-width="2" opacity="0.5"/>
  <line x1="75" y1="65" x2="75" y2="435" stroke="#6c5ce7" stroke-width="2" opacity="0.5"/>
  <line x1="725" y1="65" x2="725" y2="435" stroke="#6c5ce7" stroke-width="2" opacity="0.5"/>
  <line x1="75" y1="435" x2="725" y2="435" stroke="#6c5ce7" stroke-width="2" opacity="0.5"/>
</svg>