<svg xmlns="http://www.w3.org/2000/svg" width="800" height="450" viewBox="0 0 800 450">
  <defs>
    <linearGradient id="bgGrad2" x1="0%" y1="0%" x2="100%" y2="100%">
      <stop offset="0%" style="stop-color:#0d1117"/>
      <stop offset="100%" style="stop-color:#161b22"/>
    </linearGradient>
  </defs>
  
  <rect width="800" height="450" fill="url(#bgGrad2)"/>
  
  <!-- Grid background -->
  <g stroke="#30363d" stroke-width="0.5" opacity="0.3">
    <line x1="0" y1="50" x2="800" y2="50"/>
    <line x1="0" y1="100" x2="800" y2="100"/>
    <line x1="0" y1="150" x2="800" y2="150"/>
    <line x1="0" y1="200" x2="800" y2="200"/>
    <line x1="0" y1="250" x2="800" y2="250"/>
    <line x1="0" y1="300" x2="800" y2="300"/>
    <line x1="0" y1="350" x2="800" y2="350"/>
    <line x1="0" y1="400" x2="800" y2="400"/>
    
    <line x1="100" y1="0" x2="100" y2="450"/>
    <line x1="200" y1="0" x2="200" y2="450"/>
    <line x1="300" y1="0" x2="300" y2="450"/>
    <line x1="400" y1="0" x2="400" y2="450"/>
    <line x1="500" y1="0" x2="500" y2="450"/>
    <line x1="600" y1="0" x2="600" y2="450"/>
    <line x1="700" y1="0" x2="700" y2="450"/>
  </g>
  
  <!-- Header -->
  <rect x="20" y="20" width="760" height="40" fill="#21262d" rx="6"/>
  <text x="40" y="47" fill="#f0f6fc" font-family="Arial" font-size="14" font-weight="bold">DATA DASHBOARD</text>
  
  <!-- KPI Cards -->
  <rect x="40" y="80" width="150" height="80" fill="#21262d" rx="6"/>
  <text x="50" y="100" fill="#8b949e" font-family="Arial" font-size="11">Total Leads</text>
  <text x="50" y="125" fill="#3fb950" font-family="Arial" font-size="20" font-weight="bold">1,247</text>
  
  <rect x="210" y="80" width="150" height="80" fill="#21262d" rx="6"/>
  <text x="220" y="100" fill="#8b949e" font-family="Arial" font-size="11">Conversion</text>
  <text x="220" y="125" fill="#58a6ff" font-family="Arial" font-size="20" font-weight="bold">7.1%</text>
  
  <rect x="380" y="80" width="150" height="80" fill="#21262d" rx="6"/>
  <text x="390" y="100" fill="#8b949e" font-family="Arial" font-size="11">Avg Value</text>
  <text x="390" y="125" fill="#d29922" font-family="Arial" font-size="20" font-weight="bold">¥45.8K</text>
  
  <rect x="550" y="80" width="150" height="80" fill="#21262d" rx="6"/>
  <text x="560" y="100" fill="#8b949e" font-family="Arial" font-size="11">ROI</text>
  <text x="560" y="125" fill="#a371f7" font-family="Arial" font-size="20" font-weight="bold">135%</text>
  
  <!-- Funnel Chart -->
  <rect x="40" y="180" width="300" height="150" fill="#21262d" rx="6"/>
  <text x="50" y="200" fill="#8b949e" font-family="Arial" font-size="11">Conversion Funnel</text>
  
  <rect x="60" y="220" width="260" height="25" fill="#3fb950"/>
  <text x="270" y="237" fill="#ffffff" font-family="Arial" font-size="10">1,247</text>
  
  <rect x="85" y="250" width="210" height="25" fill="#58a6ff"/>
  <text x="265" y="267" fill="#ffffff" font-family="Arial" font-size="10">856</text>
  
  <rect x="110" y="280" width="160" height="25" fill="#d29922"/>
  <text x="245" y="297" fill="#ffffff" font-family="Arial" font-size="10">342</text>
  
  <rect x="135" y="310" width="110" height="25" fill="#f85149"/>
  <text x="215" y="327" fill="#ffffff" font-family="Arial" font-size="10">89</text>
  
  <!-- Bar Chart -->
  <rect x="360" y="180" width="400" height="150" fill="#21262d" rx="6"/>
  <text x="370" y="200" fill="#8b949e" font-family="Arial" font-size="11">Weekly Trend</text>
  
  <text x="370" y="320" fill="#8b949e" font-family="Arial" font-size="9">W1</text>
  <rect x="380" y="280" width="40" height="40" fill="#3fb950"/>
  
  <text x="430" y="320" fill="#8b949e" font-family="Arial" font-size="9">W2</text>
  <rect x="440" y="260" width="40" height="60" fill="#3fb950"/>
  
  <text x="490" y="320" fill="#8b949e" font-family="Arial" font-size="9">W3</text>
  <rect x="500" y="270" width="40" height="50" fill="#3fb950"/>
  
  <text x="550" y="320" fill="#8b949e" font-family="Arial" font-size="9">W4</text>
  <rect x="560" y="240" width="40" height="80" fill="#3fb950"/>
  
  <text x="610" y="320" fill="#8b949e" font-family="Arial" font-size="9">W5</text>
  <rect x="620" y="255" width="40" height="65" fill="#3fb950"/>
  
  <text x="670" y="320" fill="#8b949e" font-family="Arial" font-size="9">W6</text>
  <rect x="680" y="275" width="40" height="45" fill="#3fb950"/>
  
  <text x="730" y="320" fill="#8b949e" font-family="Arial" font-size="9">W7</text>
  <rect x="740" y="265" width="40" height="55" fill="#3fb950"/>
  
  <!-- Pie Chart -->
  <rect x="40" y="350" width="200" height="80" fill="#21262d" rx="6"/>
  <text x="50" y="370" fill="#8b949e" font-family="Arial" font-size="11">Grade Distribution</text>
  
  <circle cx="140" cy="390" r="30" fill="#3fb950"/>
  <circle cx="140" cy="390" r="22" fill="#21262d"/>
  <circle cx="140" cy="390" r="14" fill="#d29922"/>
  <circle cx="140" cy="390" r="6" fill="#f85149"/>
  
  <text x="175" y="380" fill="#3fb950" font-family="Arial" font-size="10">A: 25%</text>
  <text x="175" y="395" fill="#d29922" font-family="Arial" font-size="10">B: 38%</text>
  <text x="175" y="410" fill="#f85149" font-family="Arial" font-size="10">C: 37%</text>
  
  <!-- Line Chart placeholder -->
  <rect x="260" y="350" width="500" height="80" fill="#21262d" rx="6"/>
  <text x="270" y="370" fill="#8b949e" font-family="Arial" font-size="11">Daily Performance</text>
  
  <!-- Decorative neon lines -->
  <line x1="20" y1="50" x2="780" y2="50" stroke="#3fb950" stroke-width="1" opacity="0.5"/>
</svg>